<?xml version="1.0" encoding="utf-8"?>
<svg version="1.1" xmlns:xlink="http://www.w3.org/1999/xlink" width="12px" height="12px" viewBox="1270 1646  12 12" xmlns="http://www.w3.org/2000/svg">
  <path d="M 1276 1646  C 1279.36 1646  1282 1648.64  1282 1652  C 1282 1655.36  1279.36 1658  1276 1658  C 1272.64 1658  1270 1655.36  1270 1652  C 1270 1648.64  1272.64 1646  1276 1646  Z " fill-rule="nonzero" fill="#ffffff" stroke="none" />
  <path d="M 1276 1646.5  C 1279.08 1646.5  1281.5 1648.92  1281.5 1652  C 1281.5 1655.08  1279.08 1657.5  1276 1657.5  C 1272.92 1657.5  1270.5 1655.08  1270.5 1652  C 1270.5 1648.92  1272.92 1646.5  1276 1646.5  Z " stroke-width="1" stroke="#797979" fill="none" />
  <path d="M 1276 1655  C 1274.32 1655  1273 1653.68  1273 1652  C 1273 1650.32  1274.32 1649  1276 1649  C 1277.68 1649  1279 1650.32  1279 1652  C 1279 1653.68  1277.68 1655  1276 1655  " fill-rule="nonzero" fill="#797979" stroke="none" />
</svg>