<?xml version="1.0" encoding="utf-8"?>
<svg version="1.1" xmlns:xlink="http://www.w3.org/1999/xlink" width="12px" height="12px" viewBox="220 382  12 12" xmlns="http://www.w3.org/2000/svg">
  <path d="M 226 382  C 229.36 382  232 384.64  232 388  C 232 391.36  229.36 394  226 394  C 222.64 394  220 391.36  220 388  C 220 384.64  222.64 382  226 382  Z " fill-rule="nonzero" fill="#ffffff" stroke="none" />
  <path d="M 226 382.5  C 229.08 382.5  231.5 384.92  231.5 388  C 231.5 391.08  229.08 393.5  226 393.5  C 222.92 393.5  220.5 391.08  220.5 388  C 220.5 384.92  222.92 382.5  226 382.5  Z " stroke-width="1" stroke="#797979" fill="none" />
  <path d="M 226 391  C 224.32 391  223 389.68  223 388  C 223 386.32  224.32 385  226 385  C 227.68 385  229 386.32  229 388  C 229 389.68  227.68 391  226 391  " fill-rule="nonzero" fill="#797979" stroke="none" />
</svg>