<?xml version="1.0" encoding="utf-8"?>
<svg version="1.1" xmlns:xlink="http://www.w3.org/1999/xlink" width="12px" height="12px" viewBox="224 616  12 12" xmlns="http://www.w3.org/2000/svg">
  <path d="M 230 616  C 233.36 616  236 618.64  236 622  C 236 625.36  233.36 628  230 628  C 226.64 628  224 625.36  224 622  C 224 618.64  226.64 616  230 616  Z " fill-rule="nonzero" fill="#ffffff" stroke="none" />
  <path d="M 230 616.5  C 233.08 616.5  235.5 618.92  235.5 622  C 235.5 625.08  233.08 627.5  230 627.5  C 226.92 627.5  224.5 625.08  224.5 622  C 224.5 618.92  226.92 616.5  230 616.5  Z " stroke-width="1" stroke="#797979" fill="none" />
  <path d="M 230 625  C 228.32 625  227 623.68  227 622  C 227 620.32  228.32 619  230 619  C 231.68 619  233 620.32  233 622  C 233 623.68  231.68 625  230 625  " fill-rule="nonzero" fill="#797979" stroke="none" />
</svg>