<?xml version="1.0" encoding="utf-8"?>
<svg version="1.1" xmlns:xlink="http://www.w3.org/1999/xlink" width="12px" height="12px" viewBox="293 474  12 12" xmlns="http://www.w3.org/2000/svg">
  <path d="M 299 474  C 302.36 474  305 476.64  305 480  C 305 483.36  302.36 486  299 486  C 295.64 486  293 483.36  293 480  C 293 476.64  295.64 474  299 474  Z " fill-rule="nonzero" fill="#f0f0f0" stroke="none" />
  <path d="M 299 474.5  C 302.08 474.5  304.5 476.92  304.5 480  C 304.5 483.08  302.08 485.5  299 485.5  C 295.92 485.5  293.5 483.08  293.5 480  C 293.5 476.92  295.92 474.5  299 474.5  Z " stroke-width="1" stroke="#797979" fill="none" />
  <path d="M 299 483  C 297.32 483  296 481.68  296 480  C 296 478.32  297.32 477  299 477  C 300.68 477  302 478.32  302 480  C 302 481.68  300.68 483  299 483  " fill-rule="nonzero" fill="#797979" stroke="none" />
</svg>