<?xml version="1.0" encoding="utf-8"?>
<svg version="1.1" xmlns:xlink="http://www.w3.org/1999/xlink" width="12px" height="12px" viewBox="224 708  12 12" xmlns="http://www.w3.org/2000/svg">
  <path d="M 230 708  C 233.36 708  236 710.64  236 714  C 236 717.36  233.36 720  230 720  C 226.64 720  224 717.36  224 714  C 224 710.64  226.64 708  230 708  Z " fill-rule="nonzero" fill="#ffffff" stroke="none" />
  <path d="M 230 708.5  C 233.08 708.5  235.5 710.92  235.5 714  C 235.5 717.08  233.08 719.5  230 719.5  C 226.92 719.5  224.5 717.08  224.5 714  C 224.5 710.92  226.92 708.5  230 708.5  Z " stroke-width="1" stroke="#797979" fill="none" />
  <path d="M 230 717  C 228.32 717  227 715.68  227 714  C 227 712.32  228.32 711  230 711  C 231.68 711  233 712.32  233 714  C 233 715.68  231.68 717  230 717  " fill-rule="nonzero" fill="#797979" stroke="none" />
</svg>