<?xml version="1.0" encoding="utf-8"?>
<svg version="1.1" xmlns:xlink="http://www.w3.org/1999/xlink" width="30px" height="37px" xmlns="http://www.w3.org/2000/svg">
  <defs>
    <filter x="10px" y="554px" width="30px" height="37px" filterUnits="userSpaceOnUse" id="filter24">
      <feOffset dx="1" dy="1" in="SourceAlpha" result="shadowOffsetInner" />
      <feGaussianBlur stdDeviation="2.5" in="shadowOffsetInner" result="shadowGaussian" />
      <feComposite in2="shadowGaussian" operator="atop" in="SourceAlpha" result="shadowComposite" />
      <feColorMatrix type="matrix" values="0 0 0 0 0  0 0 0 0 0  0 0 0 0 0  0 0 0 0.698039215686274 0  " in="shadowComposite" />
    </filter>
    <g id="widget25">
      <path d="M 24 584.028794418255  C 20.2 577.652335026619  14.5 573.826459391637  14.5 567.45  C 14.5 564.125714285714  16.4 558.5  24 558.5  C 31.6 558.5  33.5 564.125714285714  33.5 567.45  C 33.5 573.826459391637  27.8 577.652335026619  24 584.028794418255  Z " fill-rule="nonzero" fill="#009dd9" stroke="none" />
      <path d="M 24 585  C 20 578.25  14 574.2  14 567.45  C 14 563.94  16 558  24 558  C 32 558  34 563.94  34 567.45  C 34 574.2  28 578.25  24 585  Z M 24 583.05758883651  C 27.6 577.054670053237  33 573.452918783273  33 567.45  C 33 564.311428571429  31.2 559  24 559  C 16.8 559  15 564.311428571429  15 567.45  C 15 573.452918783273  20.4 577.054670053237  24 583.05758883651  Z " fill-rule="nonzero" fill="#ffffff" stroke="none" />
    </g>
  </defs>
  <g transform="matrix(1 0 0 1 -10 -554 )">
    <use xlink:href="#widget25" filter="url(#filter24)" />
    <use xlink:href="#widget25" />
  </g>
</svg>