<?xml version="1.0" encoding="utf-8"?>
<svg version="1.1" xmlns:xlink="http://www.w3.org/1999/xlink" width="15px" height="18px" xmlns="http://www.w3.org/2000/svg">
  <g transform="matrix(1 0 0 1 -7 -20 )">
    <path d="M 14.900390625 13.013671875  C 14.966796875 13.603515625  15 14.23046875  15 14.89453125  C 15 15.74609375  14.755859375 16.4765625  14.267578125 17.0859375  C 13.779296875 17.6953125  13.19140625 18  12.50390625 18  L 2.49609375 18  C 1.80859375 18  1.220703125 17.6953125  0.732421875 17.0859375  C 0.244140625 16.4765625  0 15.74609375  0 14.89453125  C 0 14.23046875  0.0332031250000001 13.603515625  0.0996093750000001 13.013671875  C 0.166015625 12.423828125  0.2890625 11.830078125  0.46875 11.232421875  C 0.6484375 10.634765625  0.876953125 10.123046875  1.154296875 9.697265625  C 1.431640625 9.271484375  1.798828125 8.923828125  2.255859375 8.654296875  C 2.712890625 8.384765625  3.23828125 8.25  3.83203125 8.25  C 4.85546875 9.25  6.078125 9.75  7.5 9.75  C 8.921875 9.75  10.14453125 9.25  11.16796875 8.25  C 11.76171875 8.25  12.287109375 8.384765625  12.744140625 8.654296875  C 13.201171875 8.923828125  13.568359375 9.271484375  13.845703125 9.697265625  C 14.123046875 10.123046875  14.3515625 10.634765625  14.53125 11.232421875  C 14.7109375 11.830078125  14.833984375 12.423828125  14.900390625 13.013671875  Z M 10.681640625 1.318359375  C 11.560546875 2.197265625  12 3.2578125  12 4.5  C 12 5.7421875  11.560546875 6.802734375  10.681640625 7.681640625  C 9.802734375 8.560546875  8.7421875 9  7.5 9  C 6.2578125 9  5.197265625 8.560546875  4.318359375 7.681640625  C 3.439453125 6.802734375  3 5.7421875  3 4.5  C 3 3.2578125  3.439453125 2.197265625  4.318359375 1.318359375  C 5.197265625 0.439453125  6.2578125 0  7.5 0  C 8.7421875 0  9.802734375 0.439453125  10.681640625 1.318359375  Z " fill-rule="nonzero" fill="#000000" stroke="none" transform="matrix(1 0 0 1 7 20 )" />
  </g>
</svg>